<svg xmlns="http://www.w3.org/2000/svg" xmlns:xlink="http://www.w3.org/1999/xlink" width="500" zoomAndPan="magnify" viewBox="0 0 375 374.999991" height="500" preserveAspectRatio="xMidYMid meet" version="1.0"><defs><clipPath id="2beba8294f"><path d="M 59.785156 58.035156 L 197 58.035156 L 197 195 L 59.785156 195 Z M 59.785156 58.035156 " clip-rule="nonzero"/></clipPath><clipPath id="868d7d225c"><path d="M 85 206 L 197 206 L 197 316.785156 L 85 316.785156 Z M 85 206 " clip-rule="nonzero"/></clipPath><clipPath id="eafeb25b67"><path d="M 208 88 L 315.535156 88 L 315.535156 196 L 208 196 Z M 208 88 " clip-rule="nonzero"/></clipPath></defs><g clip-path="url(#2beba8294f)"><path fill="#48bbc6" d="M 118.929688 173.195312 L 175.34375 173.195312 L 175.34375 116.890625 L 196.613281 116.890625 L 196.613281 58.035156 L 59.886719 58.035156 L 59.886719 194.492188 L 118.929688 194.492188 Z M 118.929688 173.195312 " fill-opacity="1" fill-rule="evenodd"/></g><g clip-path="url(#868d7d225c)"><path fill="#6ca8da" d="M 129.863281 227.75 L 118.929688 227.75 L 118.929688 206.136719 L 85.746094 206.136719 L 85.746094 316.785156 L 196.613281 316.785156 L 196.613281 284.054688 L 175.34375 284.054688 L 175.34375 227.75 Z M 129.863281 227.75 " fill-opacity="1" fill-rule="evenodd"/></g><g clip-path="url(#eafeb25b67)"><path fill="#6ca8da" d="M 240.9375 173.195312 L 286.417969 173.195312 L 286.417969 195.085938 L 315.433594 195.085938 L 315.433594 88.777344 L 208.914062 88.777344 L 208.914062 116.890625 L 230.007812 116.890625 L 230.007812 173.195312 Z M 240.9375 173.195312 " fill-opacity="1" fill-rule="evenodd"/></g><path fill="#48bbc6" d="M 297.351562 206.765625 L 286.417969 206.765625 L 286.417969 227.75 L 230.007812 227.75 L 230.007812 284.054688 L 208.914062 284.054688 L 208.914062 294.964844 L 297.351562 294.964844 Z M 297.351562 206.765625 " fill-opacity="1" fill-rule="evenodd"/><path fill="#4198b2" d="M 240.9375 294.964844 L 240.9375 238.660156 L 297.351562 238.660156 L 297.351562 206.765625 L 286.417969 206.765625 L 286.417969 227.75 L 230.007812 227.75 L 230.007812 284.054688 L 208.914062 284.054688 L 208.914062 294.964844 Z M 240.9375 294.964844 " fill-opacity="1" fill-rule="evenodd"/><path fill="#5486c4" d="M 186.277344 284.054688 L 196.613281 284.054688 L 196.613281 294.964844 L 186.277344 294.964844 Z M 186.277344 284.054688 " fill-opacity="1" fill-rule="evenodd"/><path fill="#5486c4" d="M 129.863281 227.75 L 175.34375 227.75 L 175.34375 238.660156 L 129.863281 238.660156 Z M 129.863281 227.75 " fill-opacity="1" fill-rule="evenodd"/><path fill="#5486c4" d="M 286.417969 184.105469 L 286.417969 195.085938 L 297.351562 195.085938 L 297.351562 184.105469 Z M 230.007812 127.804688 L 230.007812 173.195312 L 240.9375 173.195312 L 240.9375 127.804688 Z M 230.007812 127.804688 " fill-opacity="1" fill-rule="evenodd"/></svg>