<svg xmlns="http://www.w3.org/2000/svg" xmlns:xlink="http://www.w3.org/1999/xlink" width="500" zoomAndPan="magnify" viewBox="0 0 375 374.999991" height="500" preserveAspectRatio="xMidYMid meet" version="1.0"><defs><g/></defs><g fill="#5486c4" fill-opacity="1"><g transform="translate(54.460755, 195.805724)"><g><path d="M 15.140625 -19.515625 L 14.84375 -14.9375 L 14.734375 -14.90625 C 13.972656 -16.0625 12.671875 -16.8125 10.828125 -17.15625 C 10.242188 -17.257812 9.6875 -17.3125 9.15625 -17.3125 C 8.625 -17.3125 8.164062 -17.265625 7.78125 -17.171875 C 7.40625 -17.085938 7.082031 -16.957031 6.8125 -16.78125 C 6.25 -16.40625 5.96875 -15.914062 5.96875 -15.3125 C 5.96875 -14.53125 6.210938 -13.941406 6.703125 -13.546875 C 7.328125 -13.066406 8.359375 -12.726562 9.796875 -12.53125 C 11.234375 -12.34375 12.390625 -12.082031 13.265625 -11.75 C 14.140625 -11.425781 14.851562 -11.007812 15.40625 -10.5 C 16.46875 -9.550781 17 -8.207031 17 -6.46875 C 17 -4.1875 16.140625 -2.429688 14.421875 -1.203125 C 12.941406 -0.140625 11.085938 0.390625 8.859375 0.390625 C 7.054688 0.390625 5.273438 0.046875 3.515625 -0.640625 C 2.929688 -0.867188 2.421875 -1.128906 1.984375 -1.421875 L 2.15625 -6.625 L 2.21875 -6.65625 C 3.5 -4.445312 5.609375 -3.34375 8.546875 -3.34375 C 10.628906 -3.34375 12.003906 -3.84375 12.671875 -4.84375 C 12.898438 -5.1875 13.015625 -5.566406 13.015625 -5.984375 C 13.015625 -6.410156 12.945312 -6.757812 12.8125 -7.03125 C 12.675781 -7.300781 12.453125 -7.535156 12.140625 -7.734375 C 11.546875 -8.128906 10.535156 -8.394531 9.109375 -8.53125 C 7.691406 -8.664062 6.53125 -8.914062 5.625 -9.28125 C 4.726562 -9.65625 4.015625 -10.117188 3.484375 -10.671875 C 2.503906 -11.660156 2.015625 -13.046875 2.015625 -14.828125 C 2.015625 -16.671875 2.664062 -18.164062 3.96875 -19.3125 C 5.28125 -20.46875 7.050781 -21.046875 9.28125 -21.046875 C 11.507812 -21.046875 13.460938 -20.535156 15.140625 -19.515625 Z M 15.140625 -19.515625 "/></g></g></g><g fill="#5486c4" fill-opacity="1"><g transform="translate(77.446682, 195.805724)"><g><path d="M 6.859375 0.09375 C 5.867188 0.03125 4.691406 0 3.328125 0 L 2.828125 0 L 2.828125 -20.734375 C 3.472656 -20.679688 3.925781 -20.65625 4.1875 -20.65625 L 4.828125 -20.65625 C 5.648438 -20.65625 6.328125 -20.695312 6.859375 -20.78125 L 6.859375 -12.5 L 14.171875 -12.5 L 14.171875 -20.734375 C 15.023438 -20.679688 15.859375 -20.65625 16.671875 -20.65625 C 17.484375 -20.65625 17.992188 -20.695312 18.203125 -20.78125 L 18.203125 0.09375 C 17.703125 0.03125 16.71875 0 15.25 0 L 14.171875 0 L 14.171875 -8.78125 L 6.859375 -8.78125 Z M 6.859375 0.09375 "/></g></g></g><g fill="#5486c4" fill-opacity="1"><g transform="translate(103.088799, 195.805724)"><g><path d="M 3.15625 -20.71875 C 4.1875 -20.675781 4.8125 -20.65625 5.03125 -20.65625 L 6.15625 -20.65625 C 6.695312 -20.65625 7.132812 -20.695312 7.46875 -20.78125 L 7.453125 0 L 3.15625 0 Z M 3.15625 -20.71875 "/></g></g></g><g fill="#5486c4" fill-opacity="1"><g transform="translate(118.168272, 195.805724)"><g><path d="M 2.8125 0 C 2.875 -0.351562 2.90625 -0.738281 2.90625 -1.15625 L 2.90625 -20.65625 L 6.015625 -20.65625 L 14.25 -7.703125 L 14.25 -19.609375 C 14.25 -20.171875 14.195312 -20.519531 14.09375 -20.65625 L 18.28125 -20.65625 C 18.226562 -20.238281 18.203125 -19.785156 18.203125 -19.296875 L 18.203125 0 L 14.96875 0 L 6.859375 -12.4375 L 6.859375 0 Z M 2.8125 0 "/></g></g></g><g fill="#5486c4" fill-opacity="1"><g transform="translate(143.732722, 195.805724)"><g><path d="M 13.0625 -3.734375 C 13.707031 -3.734375 14.15625 -3.796875 14.40625 -3.921875 L 14.46875 -3.90625 L 14.3125 0 L 2.671875 0 L 2.671875 -20.765625 C 2.953125 -20.742188 3.265625 -20.726562 3.609375 -20.71875 L 4.6875 -20.6875 C 5.414062 -20.664062 6.203125 -20.65625 7.046875 -20.65625 C 9.421875 -20.65625 11.769531 -20.695312 14.09375 -20.78125 C 13.976562 -19.875 13.921875 -18.660156 13.921875 -17.140625 C 13.921875 -16.972656 13.929688 -16.847656 13.953125 -16.765625 L 13.921875 -16.71875 C 13.378906 -16.875 12.613281 -16.953125 11.625 -16.953125 L 6.71875 -16.953125 L 6.71875 -12.984375 L 10.40625 -12.984375 C 11.539062 -12.984375 12.222656 -13.015625 12.453125 -13.078125 L 12.5 -9.25 C 12.007812 -9.289062 11.367188 -9.3125 10.578125 -9.3125 L 6.71875 -9.3125 L 6.71875 -3.734375 Z M 13.0625 -3.734375 "/></g></g></g><g fill="#5486c4" fill-opacity="1"><g transform="translate(164.124582, 195.805724)"><g/></g></g><g fill="#5486c4" fill-opacity="1"><g transform="translate(179.126392, 195.805724)"><g><path d="M 4.359375 -2.453125 C 3.421875 -3.359375 2.679688 -4.441406 2.140625 -5.703125 C 1.597656 -6.960938 1.328125 -8.34375 1.328125 -9.84375 C 1.328125 -11.351562 1.578125 -12.78125 2.078125 -14.125 C 2.585938 -15.476562 3.3125 -16.664062 4.25 -17.6875 C 5.195312 -18.71875 6.335938 -19.535156 7.671875 -20.140625 C 9.003906 -20.742188 10.5 -21.046875 12.15625 -21.046875 C 15.019531 -21.046875 17.429688 -20.144531 19.390625 -18.34375 C 21.484375 -16.414062 22.53125 -13.816406 22.53125 -10.546875 C 22.53125 -7.378906 21.453125 -4.742188 19.296875 -2.640625 C 17.960938 -1.347656 16.382812 -0.457031 14.5625 0.03125 C 13.65625 0.269531 12.597656 0.390625 11.390625 0.390625 C 10.179688 0.390625 8.941406 0.140625 7.671875 -0.359375 C 6.410156 -0.859375 5.304688 -1.554688 4.359375 -2.453125 Z M 5.640625 -10.0625 C 5.640625 -9.101562 5.800781 -8.21875 6.125 -7.40625 C 6.445312 -6.601562 6.890625 -5.910156 7.453125 -5.328125 C 8.671875 -4.109375 10.226562 -3.5 12.125 -3.5 C 13.9375 -3.5 15.394531 -4.082031 16.5 -5.25 C 17.613281 -6.457031 18.171875 -8.109375 18.171875 -10.203125 C 18.171875 -12.171875 17.640625 -13.8125 16.578125 -15.125 C 15.421875 -16.53125 13.847656 -17.234375 11.859375 -17.234375 C 9.921875 -17.234375 8.378906 -16.519531 7.234375 -15.09375 C 6.171875 -13.757812 5.640625 -12.082031 5.640625 -10.0625 Z M 5.640625 -10.0625 "/></g></g></g><g fill="#5486c4" fill-opacity="1"><g transform="translate(207.424703, 195.805724)"><g><path d="M 2.8125 0 C 2.875 -0.351562 2.90625 -0.738281 2.90625 -1.15625 L 2.90625 -20.65625 L 6.015625 -20.65625 L 14.25 -7.703125 L 14.25 -19.609375 C 14.25 -20.171875 14.195312 -20.519531 14.09375 -20.65625 L 18.28125 -20.65625 C 18.226562 -20.238281 18.203125 -19.785156 18.203125 -19.296875 L 18.203125 0 L 14.96875 0 L 6.859375 -12.4375 L 6.859375 0 Z M 2.8125 0 "/></g></g></g><g fill="#5486c4" fill-opacity="1"><g transform="translate(232.989153, 195.805724)"><g/></g></g><g fill="#5486c4" fill-opacity="1"><g transform="translate(247.990963, 195.805724)"><g><path d="M 7 0 C 7.132812 -0.40625 7.203125 -1.347656 7.203125 -2.828125 L 7.203125 -7.140625 C 5.410156 -11.085938 4.265625 -13.550781 3.765625 -14.53125 C 3.273438 -15.507812 2.859375 -16.285156 2.515625 -16.859375 C 1.441406 -18.679688 0.789062 -19.722656 0.5625 -19.984375 C 0.34375 -20.253906 0.117188 -20.476562 -0.109375 -20.65625 L 5.25 -20.65625 C 5.363281 -20.445312 5.519531 -20.144531 5.71875 -19.75 L 9.46875 -11.8125 C 9.644531 -12.238281 9.851562 -12.722656 10.09375 -13.265625 C 12.351562 -18.117188 13.5 -20.582031 13.53125 -20.65625 L 18.65625 -20.65625 C 18.125 -20.226562 17.476562 -19.335938 16.71875 -17.984375 C 16.476562 -17.578125 16.238281 -17.117188 16 -16.609375 L 12.484375 -9.28125 C 12.097656 -8.40625 11.765625 -7.613281 11.484375 -6.90625 L 11.484375 -2.453125 C 11.484375 -1.421875 11.546875 -0.601562 11.671875 0 Z M 7 0 "/></g></g></g><g fill="#5486c4" fill-opacity="1"><g transform="translate(270.976894, 195.805724)"><g><path d="M 4.359375 -2.453125 C 3.421875 -3.359375 2.679688 -4.441406 2.140625 -5.703125 C 1.597656 -6.960938 1.328125 -8.34375 1.328125 -9.84375 C 1.328125 -11.351562 1.578125 -12.78125 2.078125 -14.125 C 2.585938 -15.476562 3.3125 -16.664062 4.25 -17.6875 C 5.195312 -18.71875 6.335938 -19.535156 7.671875 -20.140625 C 9.003906 -20.742188 10.5 -21.046875 12.15625 -21.046875 C 15.019531 -21.046875 17.429688 -20.144531 19.390625 -18.34375 C 21.484375 -16.414062 22.53125 -13.816406 22.53125 -10.546875 C 22.53125 -7.378906 21.453125 -4.742188 19.296875 -2.640625 C 17.960938 -1.347656 16.382812 -0.457031 14.5625 0.03125 C 13.65625 0.269531 12.597656 0.390625 11.390625 0.390625 C 10.179688 0.390625 8.941406 0.140625 7.671875 -0.359375 C 6.410156 -0.859375 5.304688 -1.554688 4.359375 -2.453125 Z M 5.640625 -10.0625 C 5.640625 -9.101562 5.800781 -8.21875 6.125 -7.40625 C 6.445312 -6.601562 6.890625 -5.910156 7.453125 -5.328125 C 8.671875 -4.109375 10.226562 -3.5 12.125 -3.5 C 13.9375 -3.5 15.394531 -4.082031 16.5 -5.25 C 17.613281 -6.457031 18.171875 -8.109375 18.171875 -10.203125 C 18.171875 -12.171875 17.640625 -13.8125 16.578125 -15.125 C 15.421875 -16.53125 13.847656 -17.234375 11.859375 -17.234375 C 9.921875 -17.234375 8.378906 -16.519531 7.234375 -15.09375 C 6.171875 -13.757812 5.640625 -12.082031 5.640625 -10.0625 Z M 5.640625 -10.0625 "/></g></g></g><g fill="#5486c4" fill-opacity="1"><g transform="translate(299.275204, 195.805724)"><g><path d="M 14.453125 -20.734375 C 15.085938 -20.679688 15.617188 -20.65625 16.046875 -20.65625 L 17.328125 -20.65625 C 17.765625 -20.65625 18.222656 -20.695312 18.703125 -20.78125 L 18.703125 -7.9375 C 18.703125 -5.382812 17.929688 -3.335938 16.390625 -1.796875 C 14.929688 -0.335938 13.097656 0.390625 10.890625 0.390625 C 8.472656 0.390625 6.519531 -0.234375 5.03125 -1.484375 C 3.363281 -2.898438 2.53125 -4.929688 2.53125 -7.578125 L 2.53125 -20.734375 C 3.394531 -20.679688 4.207031 -20.65625 4.96875 -20.65625 C 5.726562 -20.65625 6.351562 -20.695312 6.84375 -20.78125 L 6.84375 -7.375 C 6.84375 -6.070312 7.242188 -5.054688 8.046875 -4.328125 C 8.796875 -3.671875 9.726562 -3.34375 10.84375 -3.34375 C 12.5 -3.34375 13.601562 -4.191406 14.15625 -5.890625 C 14.351562 -6.492188 14.453125 -7.25 14.453125 -8.15625 Z M 14.453125 -20.734375 "/></g></g></g><g fill="#48bbc6" fill-opacity="1"><g transform="translate(142.992286, 227.423452)"><g><path d="M 9.765625 0 L 12.25 -11.234375 L 10.84375 -11.234375 L 9.78125 -6.40625 L 3.21875 -6.40625 L 4.28125 -11.234375 L 2.875 -11.234375 L 0.40625 0 L 1.796875 0 L 2.9375 -5.15625 L 9.5 -5.15625 L 8.375 0 Z M 9.765625 0 "/></g></g></g><g fill="#48bbc6" fill-opacity="1"><g transform="translate(155.824509, 227.423452)"><g><path d="M 0.671875 -3.40625 C 0.671875 -1.234375 2.171875 0.203125 4.65625 0.203125 C 5.6875 0.203125 6.765625 -0.1875 7.5 -0.765625 L 7.078125 -1.640625 C 6.421875 -1.109375 5.53125 -0.84375 4.734375 -0.84375 C 2.890625 -0.84375 1.96875 -2 1.96875 -3.265625 C 1.96875 -3.390625 1.984375 -3.59375 1.984375 -3.65625 L 8.625 -3.65625 C 8.671875 -3.890625 8.765625 -4.390625 8.765625 -4.78125 C 8.765625 -6.859375 7.390625 -8.34375 5.25 -8.34375 C 2.671875 -8.34375 0.671875 -6.09375 0.671875 -3.40625 Z M 2.125 -4.578125 C 2.375 -6.03125 3.640625 -7.296875 5.140625 -7.296875 C 6.75 -7.296875 7.609375 -6.25 7.609375 -4.90625 C 7.609375 -4.8125 7.59375 -4.65625 7.578125 -4.578125 Z M 2.125 -4.578125 "/></g></g></g><g fill="#48bbc6" fill-opacity="1"><g transform="translate(166.147604, 227.423452)"><g><path d="M 7.765625 -6.859375 C 7.21875 -7.75 6.203125 -8.34375 4.9375 -8.34375 C 2.3125 -8.34375 0.671875 -5.796875 0.671875 -3.15625 C 0.671875 -1.03125 1.953125 0.203125 3.828125 0.203125 C 4.921875 0.203125 5.828125 -0.3125 6.5 -1.15625 L 6.25 0 L 7.515625 0 L 9.3125 -8.140625 L 8.046875 -8.140625 Z M 2 -3.390625 C 2 -5.34375 3.25 -7.203125 5.109375 -7.203125 C 6.28125 -7.203125 7.15625 -6.625 7.5625 -5.890625 L 6.75 -2.3125 C 6.234375 -1.546875 5.28125 -0.921875 4.28125 -0.921875 C 2.90625 -0.921875 2 -1.875 2 -3.390625 Z M 2 -3.390625 "/></g></g></g><g fill="#48bbc6" fill-opacity="1"><g transform="translate(176.672777, 227.423452)"><g><path d="M 1.609375 0 L 4.09375 -11.234375 L 2.828125 -11.234375 L 0.359375 0 Z M 1.609375 0 "/></g></g></g><g fill="#48bbc6" fill-opacity="1"><g transform="translate(181.304018, 227.423452)"><g><path d="M 0.9375 -1.28125 C 0.9375 -0.265625 1.671875 0.203125 2.796875 0.203125 C 3.28125 0.203125 3.71875 0.046875 4.03125 -0.1875 L 3.875 -1.203125 C 3.703125 -1.046875 3.40625 -0.921875 3.09375 -0.921875 C 2.5625 -0.921875 2.296875 -1.203125 2.296875 -1.6875 C 2.296875 -1.796875 2.3125 -1.921875 2.328125 -2.015625 L 3.4375 -7.046875 L 5.09375 -7.046875 L 5.34375 -8.140625 L 3.6875 -8.140625 L 4.171875 -10.359375 L 2.90625 -10.359375 L 2.421875 -8.140625 L 1.078125 -8.140625 L 0.828125 -7.046875 L 2.171875 -7.046875 L 1 -1.75 C 0.953125 -1.578125 0.9375 -1.359375 0.9375 -1.28125 Z M 0.9375 -1.28125 "/></g></g></g><g fill="#48bbc6" fill-opacity="1"><g transform="translate(187.0972, 227.423452)"><g><path d="M 7.125 0 L 8.359375 -5.640625 C 8.40625 -5.8125 8.453125 -6.1875 8.453125 -6.3125 C 8.453125 -7.625 7.46875 -8.34375 6.03125 -8.34375 C 4.875 -8.34375 3.859375 -7.625 3.15625 -6.953125 L 4.09375 -11.234375 L 2.828125 -11.234375 L 0.359375 0 L 1.609375 0 L 2.9375 -5.90625 C 3.546875 -6.5625 4.5 -7.203125 5.4375 -7.203125 C 6.40625 -7.203125 7.125 -6.84375 7.125 -5.890625 C 7.125 -5.765625 7.0625 -5.484375 7.03125 -5.34375 L 5.859375 0 Z M 7.125 0 "/></g></g></g><g fill="#48bbc6" fill-opacity="1"><g transform="translate(197.235051, 227.423452)"><g><path d="M 1.796875 0 L 2.90625 -5.125 L 8.78125 -5.125 L 9.046875 -6.359375 L 3.203125 -6.359375 L 4.015625 -9.984375 L 9.96875 -9.984375 L 10.234375 -11.234375 L 2.875 -11.234375 L 0.40625 0 Z M 1.796875 0 "/></g></g></g><g fill="#48bbc6" fill-opacity="1"><g transform="translate(207.339222, 227.423452)"><g><path d="M 2.390625 -10.234375 C 2.390625 -9.84375 2.734375 -9.5 3.171875 -9.5 C 3.609375 -9.5 4.125 -9.875 4.125 -10.453125 C 4.125 -10.859375 3.796875 -11.203125 3.359375 -11.203125 C 2.90625 -11.203125 2.390625 -10.84375 2.390625 -10.234375 Z M 1.609375 0 L 3.421875 -8.140625 L 2.15625 -8.140625 L 0.359375 0 Z M 1.609375 0 "/></g></g></g><g fill="#48bbc6" fill-opacity="1"><g transform="translate(211.970463, 227.423452)"><g><path d="M 1.609375 0 L 2.875 -5.75 C 3.40625 -6.4375 4.296875 -7.078125 5.234375 -7.078125 C 5.53125 -7.078125 5.78125 -7.046875 5.875 -7 L 6.171875 -8.296875 C 4.765625 -8.296875 3.9375 -7.8125 3.140625 -6.890625 L 3.421875 -8.140625 L 2.15625 -8.140625 L 0.359375 0 Z M 1.609375 0 "/></g></g></g><g fill="#48bbc6" fill-opacity="1"><g transform="translate(218.369884, 227.423452)"><g><path d="M 0.046875 -1.234375 C 0.796875 -0.296875 2.015625 0.203125 3.484375 0.203125 C 5.53125 0.203125 6.6875 -1.0625 6.6875 -2.453125 C 6.6875 -3.796875 5.328125 -4.3125 4.140625 -4.75 C 3.234375 -5.109375 2.40625 -5.421875 2.40625 -6.0625 C 2.40625 -6.75 3.0625 -7.3125 4.15625 -7.3125 C 5.203125 -7.3125 6.234375 -6.78125 6.609375 -6.1875 L 7.328125 -7 C 6.78125 -7.75 5.609375 -8.34375 4.234375 -8.34375 C 2.234375 -8.34375 1.140625 -7.171875 1.140625 -5.859375 C 1.140625 -4.59375 2.453125 -4.109375 3.625 -3.65625 C 4.5625 -3.28125 5.421875 -2.953125 5.421875 -2.25 C 5.421875 -1.515625 4.71875 -0.828125 3.546875 -0.828125 C 2.34375 -0.828125 1.28125 -1.453125 0.84375 -2.09375 Z M 0.046875 -1.234375 "/></g></g></g><g fill="#48bbc6" fill-opacity="1"><g transform="translate(227.042674, 227.423452)"><g><path d="M 0.9375 -1.28125 C 0.9375 -0.265625 1.671875 0.203125 2.796875 0.203125 C 3.28125 0.203125 3.71875 0.046875 4.03125 -0.1875 L 3.875 -1.203125 C 3.703125 -1.046875 3.40625 -0.921875 3.09375 -0.921875 C 2.5625 -0.921875 2.296875 -1.203125 2.296875 -1.6875 C 2.296875 -1.796875 2.3125 -1.921875 2.328125 -2.015625 L 3.4375 -7.046875 L 5.09375 -7.046875 L 5.34375 -8.140625 L 3.6875 -8.140625 L 4.171875 -10.359375 L 2.90625 -10.359375 L 2.421875 -8.140625 L 1.078125 -8.140625 L 0.828125 -7.046875 L 2.171875 -7.046875 L 1 -1.75 C 0.953125 -1.578125 0.9375 -1.359375 0.9375 -1.28125 Z M 0.9375 -1.28125 "/></g></g></g></svg>